# This file uses centimeters as units for non-parametric coordinates.

mtllib voxelCamera.mtl
g default
v -0.500000 -0.500000 0.432230
v 0.500000 -0.500000 0.432230
v -0.500000 0.500000 0.432230
v 0.500000 0.500000 0.432230
v -0.500000 0.500000 -0.567770
v 0.500000 0.500000 -0.567770
v -0.500000 -0.500000 -0.567770
v 0.500000 -0.500000 -0.567770
v -0.312845 0.312845 -0.567770
v 0.312845 0.312845 -0.567770
v 0.312845 -0.312845 -0.567770
v -0.312845 -0.312845 -0.567770
v -0.432751 0.432751 -1.019269
v 0.432751 0.432751 -1.019269
v 0.432751 -0.432751 -1.019269
v -0.432751 -0.432751 -1.019269
vt 0.375000 0.000000
vt 0.625000 0.000000
vt 0.375000 0.250000
vt 0.625000 0.250000
vt 0.375000 0.500000
vt 0.625000 0.500000
vt 0.375000 0.750000
vt 0.625000 0.750000
vt 0.375000 1.000000
vt 0.625000 1.000000
vt 0.875000 0.000000
vt 0.875000 0.250000
vt 0.125000 0.000000
vt 0.125000 0.250000
vt 0.375000 0.500000
vt 0.625000 0.500000
vt 0.625000 0.750000
vt 0.375000 0.750000
vt 0.375000 0.500000
vt 0.625000 0.500000
vt 0.625000 0.750000
vt 0.375000 0.750000
vn 0.000000 0.000000 1.000000
vn 0.000000 0.000000 1.000000
vn 0.000000 0.000000 1.000000
vn 0.000000 0.000000 1.000000
vn 0.000000 1.000000 0.000000
vn 0.000000 1.000000 0.000000
vn 0.000000 1.000000 0.000000
vn 0.000000 1.000000 0.000000
vn 0.000000 0.000000 -1.000000
vn 0.000000 0.000000 -1.000000
vn 0.000000 0.000000 -1.000000
vn 0.000000 0.000000 -1.000000
vn 0.000000 -1.000000 0.000000
vn 0.000000 -1.000000 0.000000
vn 0.000000 -1.000000 0.000000
vn 0.000000 -1.000000 0.000000
vn 1.000000 0.000000 0.000000
vn 1.000000 0.000000 0.000000
vn 1.000000 0.000000 0.000000
vn 1.000000 0.000000 0.000000
vn -1.000000 0.000000 0.000000
vn -1.000000 0.000000 0.000000
vn -1.000000 0.000000 0.000000
vn -1.000000 0.000000 0.000000
vn 0.000000 0.000000 -1.000000
vn 0.000000 0.000000 -1.000000
vn 0.000000 0.000000 -1.000000
vn 0.000000 0.000000 -1.000000
vn 0.000000 0.000000 -1.000000
vn 0.000000 0.000000 -1.000000
vn 0.000000 0.000000 -1.000000
vn 0.000000 0.000000 -1.000000
vn 0.000000 0.000000 -1.000000
vn 0.000000 0.000000 -1.000000
vn 0.000000 0.000000 -1.000000
vn 0.000000 0.000000 -1.000000
vn 0.000000 0.000000 -1.000000
vn 0.000000 0.000000 -1.000000
vn 0.000000 0.000000 -1.000000
vn 0.000000 0.000000 -1.000000
vn 0.000000 0.966497 0.256677
vn 0.000000 0.966497 0.256677
vn 0.000000 0.966497 0.256677
vn 0.000000 0.966497 0.256677
vn 0.966497 0.000000 0.256677
vn 0.966497 0.000000 0.256677
vn 0.966497 0.000000 0.256677
vn 0.966497 0.000000 0.256677
vn 0.000000 -0.966497 0.256677
vn 0.000000 -0.966497 0.256677
vn 0.000000 -0.966497 0.256677
vn 0.000000 -0.966497 0.256677
vn -0.966497 0.000000 0.256677
vn -0.966497 0.000000 0.256677
vn -0.966497 0.000000 0.256677
vn -0.966497 0.000000 0.256677
s 1
g pCube1
usemtl initialShadingGroup
f 1/1/1 2/2/2 3/3/3
f 3/3/3 2/2/2 4/4/4
s 2
f 3/3/5 4/4/6 5/5/7
f 5/5/7 4/4/6 6/6/8
s 3
f 13/19/9 14/20/10 16/22/11
f 16/22/11 14/20/10 15/21/12
s 4
f 7/7/13 8/8/14 1/9/15
f 1/9/15 8/8/14 2/10/16
s 5
f 2/2/17 8/11/18 4/4/19
f 4/4/19 8/11/18 6/12/20
s 6
f 7/13/21 1/1/22 5/14/23
f 5/14/23 1/1/22 3/3/24
s 7
f 5/5/25 6/6/26 9/15/27
f 9/15/27 6/6/26 10/16/28
s 8
f 6/6/29 8/8/30 10/16/31
f 10/16/31 8/8/30 11/17/32
s 9
f 8/8/33 7/7/34 11/17/35
f 11/17/35 7/7/34 12/18/36
s 10
f 7/7/37 5/5/38 12/18/39
f 12/18/39 5/5/38 9/15/40
s 11
f 9/15/41 10/16/42 13/19/43
f 13/19/43 10/16/42 14/20/44
s 12
f 10/16/45 11/17/46 14/20/47
f 14/20/47 11/17/46 15/21/48
s 13
f 11/17/49 12/18/50 15/21/51
f 15/21/51 12/18/50 16/22/52
s 14
f 12/18/53 9/15/54 16/22/55
f 16/22/55 9/15/54 13/19/56
