# This file uses centimeters as units for non-parametric coordinates.

mtllib cow_03.mtl
g default
v 0.305998 0.688495 0.803245
v 0.382498 0.688496 0.803245
v 0.305998 0.917994 0.803245
v 0.382498 0.917994 0.803245
v 0.305998 0.917994 0.726746
v 0.382497 0.917994 0.726745
v 0.305998 0.688495 0.726746
v 0.382497 0.688496 0.726745
v 0.152999 -0.917994 0.497247
v 0.458997 -0.917994 0.497247
v 0.152999 -0.152999 0.497247
v 0.458997 -0.152999 0.497247
v 0.152999 -0.152999 0.191249
v 0.458997 -0.152999 0.191249
v 0.152999 -0.917994 0.191249
v 0.458997 -0.917994 0.191249
v -0.382497 0.688495 0.803245
v -0.305998 0.688496 0.803245
v -0.382497 0.917994 0.803245
v -0.305998 0.917994 0.803245
v -0.382498 0.917994 0.726746
v -0.305998 0.917994 0.726745
v -0.382498 0.688495 0.726746
v -0.305998 0.688496 0.726745
v -0.458997 -0.917994 0.497247
v -0.152999 -0.917994 0.497247
v -0.458997 -0.152999 0.497247
v -0.152999 -0.152999 0.497247
v -0.458997 -0.152999 0.191249
v -0.152999 -0.152999 0.191249
v -0.458997 -0.917994 0.191249
v -0.152999 -0.917994 0.191249
v -0.458997 -0.917994 -0.573746
v -0.152999 -0.917994 -0.573746
v -0.458997 -0.152999 -0.573746
v -0.152999 -0.152999 -0.573746
v -0.458997 -0.152999 -0.879744
v -0.152999 -0.152999 -0.879744
v -0.458997 -0.917994 -0.879744
v -0.152999 -0.917994 -0.879744
v -0.305998 0.152999 0.956244
v 0.305998 0.152999 0.956244
v -0.305998 0.764995 0.956244
v 0.305998 0.764995 0.956244
v -0.305998 0.764995 0.497247
v 0.305998 0.764995 0.497247
v -0.305998 0.152999 0.497247
v 0.305998 0.152999 0.497247
v -0.458997 -0.152999 0.497247
v 0.458997 -0.152999 0.497247
v -0.458997 0.611996 0.497247
v 0.458997 0.611996 0.497247
v -0.458997 0.611996 -0.956244
v 0.458997 0.611996 -0.956244
v -0.458997 -0.152999 -0.956244
v 0.458997 -0.152999 -0.956244
v 0.152999 -0.917994 -0.573746
v 0.458997 -0.917994 -0.573746
v 0.152999 -0.152999 -0.573746
v 0.458997 -0.152999 -0.573746
v 0.152999 -0.152999 -0.879744
v 0.458997 -0.152999 -0.879744
v 0.152999 -0.917994 -0.879744
v 0.458997 -0.917994 -0.879744
vt 0.359375 0.875000
vt 0.375000 0.875000
vt 0.375000 0.968750
vt 0.359375 0.968750
vt 0.359375 0.968750
vt 0.375000 0.968750
vt 0.375000 1.000000
vt 0.359375 1.000000
vt 0.375000 0.875000
vt 0.390625 0.875000
vt 0.390625 0.968750
vt 0.375000 0.968750
vt 0.375000 0.968750
vt 0.390625 0.968750
vt 0.390625 1.000000
vt 0.375000 1.000000
vt 0.390625 0.875000
vt 0.406250 0.875000
vt 0.406250 0.968750
vt 0.390625 0.968750
vt 0.343750 0.875000
vt 0.359375 0.875000
vt 0.359375 0.968750
vt 0.343750 0.968750
vt 0.062500 0.000000
vt 0.125000 0.000000
vt 0.125000 0.375000
vt 0.062500 0.375000
vt 0.062500 0.375000
vt 0.125000 0.375000
vt 0.125000 0.500000
vt 0.062500 0.500000
vt 0.250000 0.375000
vt 0.187500 0.375000
vt 0.187500 0.000000
vt 0.250000 0.000000
vt 0.187500 0.500000
vt 0.125000 0.500000
vt 0.125000 0.375000
vt 0.187500 0.375000
vt 0.125000 0.000000
vt 0.187500 0.000000
vt 0.187500 0.375000
vt 0.125000 0.375000
vt 0.000000 0.000000
vt 0.062500 0.000000
vt 0.062500 0.375000
vt 0.000000 0.375000
vt 0.359375 0.875000
vt 0.375000 0.875000
vt 0.375000 0.968750
vt 0.359375 0.968750
vt 0.359375 0.968750
vt 0.375000 0.968750
vt 0.375000 1.000000
vt 0.359375 1.000000
vt 0.375000 0.875000
vt 0.390625 0.875000
vt 0.390625 0.968750
vt 0.375000 0.968750
vt 0.375000 0.968750
vt 0.390625 0.968750
vt 0.390625 1.000000
vt 0.375000 1.000000
vt 0.390625 0.875000
vt 0.406250 0.875000
vt 0.406250 0.968750
vt 0.390625 0.968750
vt 0.343750 0.875000
vt 0.359375 0.875000
vt 0.359375 0.968750
vt 0.343750 0.968750
vt 0.062500 0.000000
vt 0.125000 0.000000
vt 0.125000 0.375000
vt 0.062500 0.375000
vt 0.062500 0.375000
vt 0.125000 0.375000
vt 0.125000 0.500000
vt 0.062500 0.500000
vt 0.250000 0.375000
vt 0.187500 0.375000
vt 0.187500 0.000000
vt 0.250000 0.000000
vt 0.187500 0.500000
vt 0.125000 0.500000
vt 0.125000 0.375000
vt 0.187500 0.375000
vt 0.125000 0.000000
vt 0.187500 0.000000
vt 0.187500 0.375000
vt 0.125000 0.375000
vt 0.000000 0.000000
vt 0.062500 0.000000
vt 0.062500 0.375000
vt 0.000000 0.375000
vt 0.062500 0.000000
vt 0.125000 0.000000
vt 0.125000 0.375000
vt 0.062500 0.375000
vt 0.062500 0.375000
vt 0.125000 0.375000
vt 0.125000 0.500000
vt 0.062500 0.500000
vt 0.250000 0.375000
vt 0.187500 0.375000
vt 0.187500 0.000000
vt 0.250000 0.000000
vt 0.187500 0.500000
vt 0.125000 0.500000
vt 0.125000 0.375000
vt 0.187500 0.375000
vt 0.125000 0.000000
vt 0.187500 0.000000
vt 0.187500 0.375000
vt 0.125000 0.375000
vt 0.000000 0.000000
vt 0.062500 0.000000
vt 0.062500 0.375000
vt 0.000000 0.375000
vt 0.093750 0.562500
vt 0.218750 0.562500
vt 0.218750 0.812500
vt 0.093750 0.812500
vt 0.218750 1.000000
vt 0.093750 1.000000
vt 0.437500 0.812500
vt 0.312500 0.812500
vt 0.312500 0.562500
vt 0.437500 0.562500
vt 0.343750 1.000000
vt 0.218750 1.000000
vt 0.218750 0.812500
vt 0.343750 0.812500
vt 0.000000 0.562500
vt 0.000000 0.812500
vt 0.437500 0.562500
vt 0.625000 0.562500
vt 0.625000 0.875000
vt 0.437500 0.875000
vt 0.968472 0.562500
vt 0.781250 0.562500
vt 0.781250 0.000835
vt 0.968472 0.000835
vt 0.375000 0.500000
vt 0.625000 0.500000
vt 0.625000 0.750000
vt 0.375000 0.750000
vt 0.437500 0.000000
vt 0.625000 0.000000
vt 0.625000 0.562500
vt 0.437500 0.562500
vt 0.625000 0.562500
vt 0.625000 0.000000
vt 0.781250 0.000000
vt 0.781250 0.562500
vt 0.437500 0.000000
vt 0.437500 0.562500
vt 0.281250 0.562500
vt 0.281250 0.000000
vt 0.062500 0.000000
vt 0.125000 0.000000
vt 0.125000 0.375000
vt 0.062500 0.375000
vt 0.062500 0.375000
vt 0.125000 0.375000
vt 0.125000 0.500000
vt 0.062500 0.500000
vt 0.250000 0.375000
vt 0.187500 0.375000
vt 0.187500 0.000000
vt 0.250000 0.000000
vt 0.187500 0.500000
vt 0.125000 0.500000
vt 0.125000 0.375000
vt 0.187500 0.375000
vt 0.125000 0.000000
vt 0.187500 0.000000
vt 0.187500 0.375000
vt 0.125000 0.375000
vt 0.000000 0.000000
vt 0.062500 0.000000
vt 0.062500 0.375000
vt 0.000000 0.375000
vn 0.000000 -0.000000 1.000000
vn 0.000000 -0.000000 1.000000
vn 0.000000 -0.000000 1.000000
vn 0.000000 -0.000000 1.000000
vn 0.000000 1.000000 -0.000001
vn 0.000000 1.000000 -0.000001
vn 0.000000 1.000000 -0.000001
vn 0.000000 1.000000 0.000000
vn -0.000007 0.000000 -1.000000
vn -0.000007 0.000000 -1.000000
vn -0.000008 0.000000 -1.000000
vn -0.000008 0.000000 -1.000000
vn 0.000003 -1.000000 -0.000001
vn 0.000003 -1.000000 -0.000000
vn 0.000003 -1.000000 -0.000000
vn 0.000003 -1.000000 0.000000
vn 1.000000 0.000000 -0.000001
vn 1.000000 0.000000 -0.000001
vn 1.000000 0.000000 -0.000001
vn 1.000000 0.000000 -0.000001
vn -1.000000 -0.000000 0.000001
vn -1.000000 -0.000000 0.000001
vn -1.000000 -0.000000 0.000001
vn -1.000000 -0.000000 0.000001
vn 0.000000 -0.000000 1.000000
vn 0.000000 -0.000000 1.000000
vn 0.000000 -0.000000 1.000000
vn 0.000000 -0.000000 1.000000
vn 0.000000 1.000000 0.000000
vn 0.000000 1.000000 0.000000
vn 0.000000 1.000000 0.000000
vn 0.000000 1.000000 0.000000
vn 0.000000 0.000000 -1.000000
vn 0.000000 0.000000 -1.000000
vn 0.000000 0.000000 -1.000000
vn 0.000000 0.000000 -1.000000
vn 0.000000 -1.000000 0.000000
vn 0.000000 -1.000000 0.000000
vn 0.000000 -1.000000 0.000000
vn 0.000000 -1.000000 0.000000
vn 1.000000 0.000000 0.000000
vn 1.000000 0.000000 0.000000
vn 1.000000 0.000000 0.000000
vn 1.000000 0.000000 0.000000
vn -1.000000 0.000000 0.000000
vn -1.000000 0.000000 0.000000
vn -1.000000 0.000000 0.000000
vn -1.000000 0.000000 0.000000
vn 0.000000 -0.000000 1.000000
vn 0.000000 -0.000000 1.000000
vn 0.000000 -0.000000 1.000000
vn 0.000000 -0.000000 1.000000
vn 0.000000 1.000000 -0.000001
vn 0.000000 1.000000 -0.000001
vn 0.000000 1.000000 -0.000001
vn 0.000000 1.000000 0.000000
vn -0.000007 0.000000 -1.000000
vn -0.000007 0.000000 -1.000000
vn -0.000008 0.000000 -1.000000
vn -0.000008 0.000000 -1.000000
vn 0.000003 -1.000000 -0.000001
vn 0.000003 -1.000000 -0.000000
vn 0.000003 -1.000000 -0.000000
vn 0.000003 -1.000000 0.000000
vn 1.000000 0.000000 -0.000001
vn 1.000000 0.000000 -0.000001
vn 1.000000 0.000000 -0.000001
vn 1.000000 0.000000 -0.000001
vn -1.000000 -0.000000 0.000001
vn -1.000000 -0.000000 0.000001
vn -1.000000 -0.000000 0.000001
vn -1.000000 -0.000000 0.000001
vn 0.000000 -0.000000 1.000000
vn 0.000000 -0.000000 1.000000
vn 0.000000 -0.000000 1.000000
vn 0.000000 -0.000000 1.000000
vn 0.000000 1.000000 0.000000
vn 0.000000 1.000000 0.000000
vn 0.000000 1.000000 0.000000
vn 0.000000 1.000000 0.000000
vn 0.000000 0.000000 -1.000000
vn 0.000000 0.000000 -1.000000
vn 0.000000 0.000000 -1.000000
vn 0.000000 0.000000 -1.000000
vn 0.000000 -1.000000 0.000000
vn 0.000000 -1.000000 0.000000
vn 0.000000 -1.000000 0.000000
vn 0.000000 -1.000000 0.000000
vn 1.000000 0.000000 0.000000
vn 1.000000 0.000000 0.000000
vn 1.000000 0.000000 0.000000
vn 1.000000 0.000000 0.000000
vn -1.000000 0.000000 0.000000
vn -1.000000 0.000000 0.000000
vn -1.000000 0.000000 0.000000
vn -1.000000 0.000000 0.000000
vn 0.000000 -0.000000 1.000000
vn 0.000000 -0.000000 1.000000
vn 0.000000 -0.000000 1.000000
vn 0.000000 -0.000000 1.000000
vn 0.000000 1.000000 0.000000
vn 0.000000 1.000000 0.000000
vn 0.000000 1.000000 0.000000
vn 0.000000 1.000000 0.000000
vn 0.000000 0.000000 -1.000000
vn 0.000000 0.000000 -1.000000
vn 0.000000 0.000000 -1.000000
vn 0.000000 0.000000 -1.000000
vn 0.000000 -1.000000 0.000000
vn 0.000000 -1.000000 0.000000
vn 0.000000 -1.000000 0.000000
vn 0.000000 -1.000000 0.000000
vn 1.000000 0.000000 0.000000
vn 1.000000 0.000000 0.000000
vn 1.000000 0.000000 0.000000
vn 1.000000 0.000000 0.000000
vn -1.000000 0.000000 0.000000
vn -1.000000 0.000000 0.000000
vn -1.000000 0.000000 0.000000
vn -1.000000 0.000000 0.000000
vn 0.000000 -0.000000 1.000000
vn 0.000000 -0.000000 1.000000
vn 0.000000 -0.000000 1.000000
vn 0.000000 -0.000000 1.000000
vn 0.000000 1.000000 0.000000
vn 0.000000 1.000000 0.000000
vn 0.000000 1.000000 0.000000
vn 0.000000 1.000000 0.000000
vn 0.000000 0.000000 -1.000000
vn 0.000000 0.000000 -1.000000
vn 0.000000 0.000000 -1.000000
vn 0.000000 0.000000 -1.000000
vn 0.000000 -1.000000 0.000000
vn 0.000000 -1.000000 0.000000
vn 0.000000 -1.000000 0.000000
vn 0.000000 -1.000000 0.000000
vn 1.000000 0.000000 0.000000
vn 1.000000 0.000000 0.000000
vn 1.000000 0.000000 0.000000
vn 1.000000 0.000000 0.000000
vn -1.000000 0.000000 0.000000
vn -1.000000 0.000000 0.000000
vn -1.000000 0.000000 0.000000
vn -1.000000 0.000000 0.000000
vn 0.000000 -0.000000 1.000000
vn 0.000000 -0.000000 1.000000
vn 0.000000 -0.000000 1.000000
vn 0.000000 -0.000000 1.000000
vn 0.000000 1.000000 0.000000
vn 0.000000 1.000000 0.000000
vn 0.000000 1.000000 0.000000
vn 0.000000 1.000000 0.000000
vn 0.000000 0.000000 -1.000000
vn 0.000000 0.000000 -1.000000
vn 0.000000 0.000000 -1.000000
vn 0.000000 0.000000 -1.000000
vn 0.000000 -1.000000 0.000000
vn 0.000000 -1.000000 0.000000
vn 0.000000 -1.000000 0.000000
vn 0.000000 -1.000000 0.000000
vn 1.000000 0.000000 0.000000
vn 1.000000 0.000000 0.000000
vn 1.000000 0.000000 0.000000
vn 1.000000 0.000000 0.000000
vn -1.000000 0.000000 0.000000
vn -1.000000 0.000000 0.000000
vn -1.000000 0.000000 0.000000
vn -1.000000 0.000000 0.000000
vn 0.000000 -0.000000 1.000000
vn 0.000000 -0.000000 1.000000
vn 0.000000 -0.000000 1.000000
vn 0.000000 -0.000000 1.000000
vn 0.000000 1.000000 0.000000
vn 0.000000 1.000000 0.000000
vn 0.000000 1.000000 0.000000
vn 0.000000 1.000000 0.000000
vn 0.000000 0.000000 -1.000000
vn 0.000000 0.000000 -1.000000
vn 0.000000 0.000000 -1.000000
vn 0.000000 0.000000 -1.000000
vn 0.000000 -1.000000 0.000000
vn 0.000000 -1.000000 0.000000
vn 0.000000 -1.000000 0.000000
vn 0.000000 -1.000000 0.000000
vn 1.000000 0.000000 0.000000
vn 1.000000 0.000000 0.000000
vn 1.000000 0.000000 0.000000
vn 1.000000 0.000000 0.000000
vn -1.000000 0.000000 0.000000
vn -1.000000 0.000000 0.000000
vn -1.000000 0.000000 0.000000
vn -1.000000 0.000000 0.000000
s 1
g cow01
usemtl lambert2SG
f 1/1/1 2/2/2 3/4/3
f 3/4/3 2/2/2 4/3/4
s 2
f 3/5/5 4/6/6 5/8/7
f 5/8/7 4/6/6 6/7/8
s 3
f 5/9/9 6/10/10 7/12/11
f 7/12/11 6/10/10 8/11/12
s 4
f 7/13/13 8/14/14 1/16/15
f 1/16/15 8/14/14 2/15/16
s 5
f 2/17/17 8/18/18 4/20/19
f 4/20/19 8/18/18 6/19/20
s 6
f 7/21/21 1/22/22 5/24/23
f 5/24/23 1/22/22 3/23/24
s 7
f 9/25/25 10/26/26 11/28/27
f 11/28/27 10/26/26 12/27/28
s 8
f 11/29/29 12/30/30 13/32/31
f 13/32/31 12/30/30 14/31/32
s 9
f 13/33/33 14/34/34 15/36/35
f 15/36/35 14/34/34 16/35/36
s 10
f 15/37/37 16/38/38 9/40/39
f 9/40/39 16/38/38 10/39/40
s 11
f 10/41/41 16/42/42 12/44/43
f 12/44/43 16/42/42 14/43/44
s 12
f 15/45/45 9/46/46 13/48/47
f 13/48/47 9/46/46 11/47/48
s 13
f 17/49/49 18/50/50 19/52/51
f 19/52/51 18/50/50 20/51/52
s 14
f 19/53/53 20/54/54 21/56/55
f 21/56/55 20/54/54 22/55/56
s 15
f 21/57/57 22/58/58 23/60/59
f 23/60/59 22/58/58 24/59/60
s 16
f 23/61/61 24/62/62 17/64/63
f 17/64/63 24/62/62 18/63/64
s 17
f 18/65/65 24/66/66 20/68/67
f 20/68/67 24/66/66 22/67/68
s 18
f 23/69/69 17/70/70 21/72/71
f 21/72/71 17/70/70 19/71/72
s 19
f 25/73/73 26/74/74 27/76/75
f 27/76/75 26/74/74 28/75/76
s 20
f 27/77/77 28/78/78 29/80/79
f 29/80/79 28/78/78 30/79/80
s 21
f 29/81/81 30/82/82 31/84/83
f 31/84/83 30/82/82 32/83/84
s 22
f 31/85/85 32/86/86 25/88/87
f 25/88/87 32/86/86 26/87/88
s 23
f 26/89/89 32/90/90 28/92/91
f 28/92/91 32/90/90 30/91/92
s 24
f 31/93/93 25/94/94 29/96/95
f 29/96/95 25/94/94 27/95/96
s 25
f 33/97/97 34/98/98 35/100/99
f 35/100/99 34/98/98 36/99/100
s 26
f 35/101/101 36/102/102 37/104/103
f 37/104/103 36/102/102 38/103/104
s 27
f 37/105/105 38/106/106 39/108/107
f 39/108/107 38/106/106 40/107/108
s 28
f 39/109/109 40/110/110 33/112/111
f 33/112/111 40/110/110 34/111/112
s 29
f 34/113/113 40/114/114 36/116/115
f 36/116/115 40/114/114 38/115/116
s 30
f 39/117/117 33/118/118 37/120/119
f 37/120/119 33/118/118 35/119/120
s 31
g textureEditorIsolateSelectSet cow01
f 41/121/121 42/122/122 43/124/123
f 43/124/123 42/122/122 44/123/124
s 32
g cow01
f 43/124/125 44/123/126 45/126/127
f 45/126/127 44/123/126 46/125/128
s 33
f 45/127/129 46/128/130 47/130/131
f 47/130/131 46/128/130 48/129/132
s 34
f 47/131/133 48/132/134 41/134/135
f 41/134/135 48/132/134 42/133/136
s 35
f 42/122/137 48/129/138 44/123/139
f 44/123/139 48/129/138 46/128/140
s 36
g textureEditorIsolateSelectSet cow01
f 47/135/141 41/121/142 45/136/143
f 45/136/143 41/121/142 43/124/144
s 37
g cow01
f 49/137/145 50/138/146 51/140/147
f 51/140/147 50/138/146 52/139/148
s 38
f 51/141/149 52/142/150 53/144/151
f 53/144/151 52/142/150 54/143/152
s 39
f 53/145/153 54/146/154 55/148/155
f 55/148/155 54/146/154 56/147/156
s 40
f 55/149/157 56/150/158 49/152/159
f 49/152/159 56/150/158 50/151/160
s 41
f 50/153/161 56/154/162 52/156/163
f 52/156/163 56/154/162 54/155/164
s 42
f 55/157/165 49/158/166 53/160/167
f 53/160/167 49/158/166 51/159/168
s 43
f 57/161/169 58/162/170 59/164/171
f 59/164/171 58/162/170 60/163/172
s 44
f 59/165/173 60/166/174 61/168/175
f 61/168/175 60/166/174 62/167/176
s 45
f 61/169/177 62/170/178 63/172/179
f 63/172/179 62/170/178 64/171/180
s 46
f 63/173/181 64/174/182 57/176/183
f 57/176/183 64/174/182 58/175/184
s 47
f 58/177/185 64/178/186 60/180/187
f 60/180/187 64/178/186 62/179/188
s 48
f 63/181/189 57/182/190 61/184/191
f 61/184/191 57/182/190 59/183/192
